<mxfile host="app.diagrams.net" modified="2023-10-11T20:09:22.517Z" agent="Mozilla/5.0 (Macintosh; Intel Mac OS X 10_15_7) AppleWebKit/537.36 (KHTML, like Gecko) Chrome/116.0.0.0 Safari/537.36" etag="bEVOxterRB1kGwU0PT6U" version="22.0.4" type="device">
  <diagram id="R2lEEEUBdFMjLlhIrx00" name="Page-1">
    <mxGraphModel dx="690" dy="420" grid="1" gridSize="10" guides="1" tooltips="1" connect="1" arrows="1" fold="1" page="1" pageScale="1" pageWidth="850" pageHeight="1100" math="0" shadow="0" extFonts="Permanent Marker^https://fonts.googleapis.com/css?family=Permanent+Marker">
      <root>
        <mxCell id="0" />
        <mxCell id="1" parent="0" />
        <mxCell id="7v8pQZR2P8C5f7t9BF2W-1" value="Research Lab" style="swimlane;fontStyle=0;childLayout=stackLayout;horizontal=1;startSize=26;horizontalStack=0;resizeParent=1;resizeParentMax=0;resizeLast=0;collapsible=1;marginBottom=0;align=center;fontSize=14;" vertex="1" parent="1">
          <mxGeometry y="240" width="160" height="80" as="geometry" />
        </mxCell>
        <mxCell id="7v8pQZR2P8C5f7t9BF2W-2" value="&lt;b&gt;&lt;u&gt;Lab_ID&lt;/u&gt;&lt;/b&gt;" style="text;strokeColor=none;fillColor=none;spacingLeft=4;spacingRight=4;overflow=hidden;rotatable=0;points=[[0,0.5],[1,0.5]];portConstraint=eastwest;fontSize=12;whiteSpace=wrap;html=1;" vertex="1" parent="7v8pQZR2P8C5f7t9BF2W-1">
          <mxGeometry y="26" width="160" height="30" as="geometry" />
        </mxCell>
        <mxCell id="7v8pQZR2P8C5f7t9BF2W-3" value="Location" style="text;strokeColor=none;fillColor=none;spacingLeft=4;spacingRight=4;overflow=hidden;rotatable=0;points=[[0,0.5],[1,0.5]];portConstraint=eastwest;fontSize=12;whiteSpace=wrap;html=1;" vertex="1" parent="7v8pQZR2P8C5f7t9BF2W-1">
          <mxGeometry y="56" width="160" height="24" as="geometry" />
        </mxCell>
        <mxCell id="7v8pQZR2P8C5f7t9BF2W-9" style="edgeStyle=orthogonalEdgeStyle;rounded=0;orthogonalLoop=1;jettySize=auto;html=1;exitX=0.5;exitY=0;exitDx=0;exitDy=0;entryX=0.5;entryY=0;entryDx=0;entryDy=0;endArrow=ERmandOne;endFill=0;startArrow=ERzeroToMany;startFill=0;" edge="1" parent="1" source="7v8pQZR2P8C5f7t9BF2W-5" target="7v8pQZR2P8C5f7t9BF2W-1">
          <mxGeometry relative="1" as="geometry" />
        </mxCell>
        <mxCell id="7v8pQZR2P8C5f7t9BF2W-5" value="Project" style="swimlane;fontStyle=0;childLayout=stackLayout;horizontal=1;startSize=26;horizontalStack=0;resizeParent=1;resizeParentMax=0;resizeLast=0;collapsible=1;marginBottom=0;align=center;fontSize=14;" vertex="1" parent="1">
          <mxGeometry x="240" y="240" width="160" height="104" as="geometry" />
        </mxCell>
        <mxCell id="7v8pQZR2P8C5f7t9BF2W-6" value="&lt;b&gt;&lt;u&gt;Project_ID&lt;/u&gt;&lt;/b&gt;" style="text;strokeColor=none;fillColor=none;spacingLeft=4;spacingRight=4;overflow=hidden;rotatable=0;points=[[0,0.5],[1,0.5]];portConstraint=eastwest;fontSize=12;whiteSpace=wrap;html=1;" vertex="1" parent="7v8pQZR2P8C5f7t9BF2W-5">
          <mxGeometry y="26" width="160" height="30" as="geometry" />
        </mxCell>
        <mxCell id="7v8pQZR2P8C5f7t9BF2W-7" value="Description" style="text;strokeColor=none;fillColor=none;spacingLeft=4;spacingRight=4;overflow=hidden;rotatable=0;points=[[0,0.5],[1,0.5]];portConstraint=eastwest;fontSize=12;whiteSpace=wrap;html=1;" vertex="1" parent="7v8pQZR2P8C5f7t9BF2W-5">
          <mxGeometry y="56" width="160" height="24" as="geometry" />
        </mxCell>
        <mxCell id="7v8pQZR2P8C5f7t9BF2W-45" value="&lt;b&gt;Project_Assignment&lt;/b&gt;" style="text;strokeColor=none;fillColor=none;spacingLeft=4;spacingRight=4;overflow=hidden;rotatable=0;points=[[0,0.5],[1,0.5]];portConstraint=eastwest;fontSize=12;whiteSpace=wrap;html=1;" vertex="1" parent="7v8pQZR2P8C5f7t9BF2W-5">
          <mxGeometry y="80" width="160" height="24" as="geometry" />
        </mxCell>
        <mxCell id="7v8pQZR2P8C5f7t9BF2W-10" value="Person" style="swimlane;fontStyle=0;childLayout=stackLayout;horizontal=1;startSize=26;horizontalStack=0;resizeParent=1;resizeParentMax=0;resizeLast=0;collapsible=1;marginBottom=0;align=center;fontSize=14;" vertex="1" parent="1">
          <mxGeometry x="10" y="407" width="160" height="176" as="geometry" />
        </mxCell>
        <mxCell id="7v8pQZR2P8C5f7t9BF2W-11" value="&lt;b&gt;&lt;u&gt;Person_ID&lt;/u&gt;&lt;/b&gt;" style="text;strokeColor=none;fillColor=none;spacingLeft=4;spacingRight=4;overflow=hidden;rotatable=0;points=[[0,0.5],[1,0.5]];portConstraint=eastwest;fontSize=12;whiteSpace=wrap;html=1;" vertex="1" parent="7v8pQZR2P8C5f7t9BF2W-10">
          <mxGeometry y="26" width="160" height="30" as="geometry" />
        </mxCell>
        <mxCell id="7v8pQZR2P8C5f7t9BF2W-12" value="SSN" style="text;strokeColor=none;fillColor=none;spacingLeft=4;spacingRight=4;overflow=hidden;rotatable=0;points=[[0,0.5],[1,0.5]];portConstraint=eastwest;fontSize=12;whiteSpace=wrap;html=1;" vertex="1" parent="7v8pQZR2P8C5f7t9BF2W-10">
          <mxGeometry y="56" width="160" height="30" as="geometry" />
        </mxCell>
        <mxCell id="7v8pQZR2P8C5f7t9BF2W-13" value="Name" style="text;strokeColor=none;fillColor=none;spacingLeft=4;spacingRight=4;overflow=hidden;rotatable=0;points=[[0,0.5],[1,0.5]];portConstraint=eastwest;fontSize=12;whiteSpace=wrap;html=1;" vertex="1" parent="7v8pQZR2P8C5f7t9BF2W-10">
          <mxGeometry y="86" width="160" height="30" as="geometry" />
        </mxCell>
        <mxCell id="7v8pQZR2P8C5f7t9BF2W-14" value="Phone_Number" style="text;strokeColor=none;fillColor=none;spacingLeft=4;spacingRight=4;overflow=hidden;rotatable=0;points=[[0,0.5],[1,0.5]];portConstraint=eastwest;fontSize=12;whiteSpace=wrap;html=1;" vertex="1" parent="7v8pQZR2P8C5f7t9BF2W-10">
          <mxGeometry y="116" width="160" height="30" as="geometry" />
        </mxCell>
        <mxCell id="7v8pQZR2P8C5f7t9BF2W-43" value="&lt;b&gt;Person_Subtype&lt;/b&gt;" style="text;strokeColor=none;fillColor=none;spacingLeft=4;spacingRight=4;overflow=hidden;rotatable=0;points=[[0,0.5],[1,0.5]];portConstraint=eastwest;fontSize=12;whiteSpace=wrap;html=1;" vertex="1" parent="7v8pQZR2P8C5f7t9BF2W-10">
          <mxGeometry y="146" width="160" height="30" as="geometry" />
        </mxCell>
        <mxCell id="7v8pQZR2P8C5f7t9BF2W-50" style="edgeStyle=orthogonalEdgeStyle;rounded=0;orthogonalLoop=1;jettySize=auto;html=1;exitX=0.5;exitY=1;exitDx=0;exitDy=0;entryX=0.5;entryY=0;entryDx=0;entryDy=0;endArrow=none;endFill=0;" edge="1" parent="1" source="7v8pQZR2P8C5f7t9BF2W-17" target="7v8pQZR2P8C5f7t9BF2W-18">
          <mxGeometry relative="1" as="geometry" />
        </mxCell>
        <mxCell id="7v8pQZR2P8C5f7t9BF2W-17" value="d" style="ellipse;whiteSpace=wrap;html=1;aspect=fixed;" vertex="1" parent="1">
          <mxGeometry x="230" y="590" width="30" height="30" as="geometry" />
        </mxCell>
        <mxCell id="7v8pQZR2P8C5f7t9BF2W-18" value="Technician" style="swimlane;fontStyle=0;childLayout=stackLayout;horizontal=1;startSize=26;horizontalStack=0;resizeParent=1;resizeParentMax=0;resizeLast=0;collapsible=1;marginBottom=0;align=center;fontSize=14;" vertex="1" parent="1">
          <mxGeometry x="230" y="680" width="160" height="116" as="geometry" />
        </mxCell>
        <mxCell id="7v8pQZR2P8C5f7t9BF2W-19" value="License Number" style="text;strokeColor=none;fillColor=none;spacingLeft=4;spacingRight=4;overflow=hidden;rotatable=0;points=[[0,0.5],[1,0.5]];portConstraint=eastwest;fontSize=12;whiteSpace=wrap;html=1;" vertex="1" parent="7v8pQZR2P8C5f7t9BF2W-18">
          <mxGeometry y="26" width="160" height="30" as="geometry" />
        </mxCell>
        <mxCell id="7v8pQZR2P8C5f7t9BF2W-20" value="Restriction" style="text;strokeColor=none;fillColor=none;spacingLeft=4;spacingRight=4;overflow=hidden;rotatable=0;points=[[0,0.5],[1,0.5]];portConstraint=eastwest;fontSize=12;whiteSpace=wrap;html=1;" vertex="1" parent="7v8pQZR2P8C5f7t9BF2W-18">
          <mxGeometry y="56" width="160" height="30" as="geometry" />
        </mxCell>
        <mxCell id="7v8pQZR2P8C5f7t9BF2W-67" value="&lt;b&gt;Maintenance&lt;/b&gt;" style="text;strokeColor=none;fillColor=none;spacingLeft=4;spacingRight=4;overflow=hidden;rotatable=0;points=[[0,0.5],[1,0.5]];portConstraint=eastwest;fontSize=12;whiteSpace=wrap;html=1;" vertex="1" parent="7v8pQZR2P8C5f7t9BF2W-18">
          <mxGeometry y="86" width="160" height="30" as="geometry" />
        </mxCell>
        <mxCell id="7v8pQZR2P8C5f7t9BF2W-44" style="edgeStyle=orthogonalEdgeStyle;rounded=0;orthogonalLoop=1;jettySize=auto;html=1;exitX=0.5;exitY=0;exitDx=0;exitDy=0;entryX=0.5;entryY=1;entryDx=0;entryDy=0;endArrow=ERzeroToMany;endFill=0;startArrow=ERzeroToOne;startFill=0;" edge="1" parent="1" source="7v8pQZR2P8C5f7t9BF2W-22" target="7v8pQZR2P8C5f7t9BF2W-5">
          <mxGeometry relative="1" as="geometry" />
        </mxCell>
        <mxCell id="7v8pQZR2P8C5f7t9BF2W-55" style="edgeStyle=orthogonalEdgeStyle;rounded=0;orthogonalLoop=1;jettySize=auto;html=1;exitX=1;exitY=0.5;exitDx=0;exitDy=0;entryX=0.5;entryY=0;entryDx=0;entryDy=0;startArrow=ERmandOne;startFill=0;endArrow=ERzeroToOne;endFill=0;" edge="1" parent="1" source="7v8pQZR2P8C5f7t9BF2W-22" target="7v8pQZR2P8C5f7t9BF2W-51">
          <mxGeometry relative="1" as="geometry" />
        </mxCell>
        <mxCell id="7v8pQZR2P8C5f7t9BF2W-22" value="Researcher" style="swimlane;fontStyle=0;childLayout=stackLayout;horizontal=1;startSize=26;horizontalStack=0;resizeParent=1;resizeParentMax=0;resizeLast=0;collapsible=1;marginBottom=0;align=center;fontSize=14;" vertex="1" parent="1">
          <mxGeometry x="240" y="460" width="160" height="86" as="geometry" />
        </mxCell>
        <mxCell id="7v8pQZR2P8C5f7t9BF2W-23" value="Rank" style="text;strokeColor=none;fillColor=none;spacingLeft=4;spacingRight=4;overflow=hidden;rotatable=0;points=[[0,0.5],[1,0.5]];portConstraint=eastwest;fontSize=12;whiteSpace=wrap;html=1;" vertex="1" parent="7v8pQZR2P8C5f7t9BF2W-22">
          <mxGeometry y="26" width="160" height="30" as="geometry" />
        </mxCell>
        <mxCell id="7v8pQZR2P8C5f7t9BF2W-24" value="Certificate" style="text;strokeColor=none;fillColor=none;spacingLeft=4;spacingRight=4;overflow=hidden;rotatable=0;points=[[0,0.5],[1,0.5]];portConstraint=eastwest;fontSize=12;whiteSpace=wrap;html=1;" vertex="1" parent="7v8pQZR2P8C5f7t9BF2W-22">
          <mxGeometry y="56" width="160" height="30" as="geometry" />
        </mxCell>
        <mxCell id="7v8pQZR2P8C5f7t9BF2W-27" value="" style="shape=link;html=1;rounded=0;entryX=0;entryY=0.5;entryDx=0;entryDy=0;exitX=1;exitY=0.5;exitDx=0;exitDy=0;" edge="1" parent="1" source="7v8pQZR2P8C5f7t9BF2W-43" target="7v8pQZR2P8C5f7t9BF2W-17">
          <mxGeometry relative="1" as="geometry">
            <mxPoint x="180" y="740" as="sourcePoint" />
            <mxPoint x="180" y="630" as="targetPoint" />
          </mxGeometry>
        </mxCell>
        <mxCell id="7v8pQZR2P8C5f7t9BF2W-28" value="" style="resizable=0;html=1;whiteSpace=wrap;align=right;verticalAlign=bottom;" connectable="0" vertex="1" parent="7v8pQZR2P8C5f7t9BF2W-27">
          <mxGeometry x="1" relative="1" as="geometry" />
        </mxCell>
        <mxCell id="7v8pQZR2P8C5f7t9BF2W-32" value="&quot;T&quot;" style="text;html=1;align=center;verticalAlign=middle;resizable=0;points=[];autosize=1;strokeColor=none;fillColor=none;" vertex="1" parent="1">
          <mxGeometry x="310" y="650" width="40" height="30" as="geometry" />
        </mxCell>
        <mxCell id="7v8pQZR2P8C5f7t9BF2W-33" value="&quot;R&quot;" style="text;html=1;align=center;verticalAlign=middle;resizable=0;points=[];autosize=1;strokeColor=none;fillColor=none;" vertex="1" parent="1">
          <mxGeometry x="310" y="553" width="40" height="30" as="geometry" />
        </mxCell>
        <mxCell id="7v8pQZR2P8C5f7t9BF2W-34" value="Person_Subtype=" style="text;html=1;align=center;verticalAlign=middle;resizable=0;points=[];autosize=1;strokeColor=none;fillColor=none;fontSize=9;" vertex="1" parent="1">
          <mxGeometry x="120" y="600" width="100" height="20" as="geometry" />
        </mxCell>
        <mxCell id="7v8pQZR2P8C5f7t9BF2W-35" value="Works On" style="text;html=1;align=center;verticalAlign=middle;resizable=0;points=[];autosize=1;strokeColor=none;fillColor=none;" vertex="1" parent="1">
          <mxGeometry x="160" y="190" width="80" height="30" as="geometry" />
        </mxCell>
        <mxCell id="7v8pQZR2P8C5f7t9BF2W-39" style="edgeStyle=orthogonalEdgeStyle;rounded=0;orthogonalLoop=1;jettySize=auto;html=1;exitX=0.5;exitY=0;exitDx=0;exitDy=0;entryX=0.451;entryY=1.032;entryDx=0;entryDy=0;entryPerimeter=0;endArrow=none;endFill=0;" edge="1" parent="1" source="7v8pQZR2P8C5f7t9BF2W-17" target="7v8pQZR2P8C5f7t9BF2W-24">
          <mxGeometry relative="1" as="geometry" />
        </mxCell>
        <mxCell id="7v8pQZR2P8C5f7t9BF2W-46" value="Assigned To" style="text;html=1;align=center;verticalAlign=middle;resizable=0;points=[];autosize=1;strokeColor=none;fillColor=none;" vertex="1" parent="1">
          <mxGeometry x="240" y="390" width="90" height="30" as="geometry" />
        </mxCell>
        <mxCell id="7v8pQZR2P8C5f7t9BF2W-51" value="Device" style="swimlane;fontStyle=0;childLayout=stackLayout;horizontal=1;startSize=26;horizontalStack=0;resizeParent=1;resizeParentMax=0;resizeLast=0;collapsible=1;marginBottom=0;align=center;fontSize=14;" vertex="1" parent="1">
          <mxGeometry x="490" y="663" width="160" height="116" as="geometry" />
        </mxCell>
        <mxCell id="7v8pQZR2P8C5f7t9BF2W-52" value="Device_ID" style="text;strokeColor=none;fillColor=none;spacingLeft=4;spacingRight=4;overflow=hidden;rotatable=0;points=[[0,0.5],[1,0.5]];portConstraint=eastwest;fontSize=12;whiteSpace=wrap;html=1;" vertex="1" parent="7v8pQZR2P8C5f7t9BF2W-51">
          <mxGeometry y="26" width="160" height="30" as="geometry" />
        </mxCell>
        <mxCell id="7v8pQZR2P8C5f7t9BF2W-53" value="Device_Name" style="text;strokeColor=none;fillColor=none;spacingLeft=4;spacingRight=4;overflow=hidden;rotatable=0;points=[[0,0.5],[1,0.5]];portConstraint=eastwest;fontSize=12;whiteSpace=wrap;html=1;" vertex="1" parent="7v8pQZR2P8C5f7t9BF2W-51">
          <mxGeometry y="56" width="160" height="30" as="geometry" />
        </mxCell>
        <mxCell id="7v8pQZR2P8C5f7t9BF2W-54" value="Description" style="text;strokeColor=none;fillColor=none;spacingLeft=4;spacingRight=4;overflow=hidden;rotatable=0;points=[[0,0.5],[1,0.5]];portConstraint=eastwest;fontSize=12;whiteSpace=wrap;html=1;" vertex="1" parent="7v8pQZR2P8C5f7t9BF2W-51">
          <mxGeometry y="86" width="160" height="30" as="geometry" />
        </mxCell>
        <mxCell id="7v8pQZR2P8C5f7t9BF2W-56" value="Borrows" style="text;html=1;align=center;verticalAlign=middle;resizable=0;points=[];autosize=1;strokeColor=none;fillColor=none;" vertex="1" parent="1">
          <mxGeometry x="450" y="500" width="70" height="30" as="geometry" />
        </mxCell>
        <mxCell id="7v8pQZR2P8C5f7t9BF2W-58" value="" style="endArrow=none;dashed=1;html=1;rounded=0;" edge="1" parent="1" target="7v8pQZR2P8C5f7t9BF2W-59">
          <mxGeometry width="50" height="50" relative="1" as="geometry">
            <mxPoint x="490" y="500" as="sourcePoint" />
            <mxPoint x="490" y="440" as="targetPoint" />
          </mxGeometry>
        </mxCell>
        <mxCell id="7v8pQZR2P8C5f7t9BF2W-59" value="&lt;font style=&quot;font-size: 10px;&quot;&gt;Borrow_Date&lt;br&gt;Borrow_Time&lt;/font&gt;" style="rounded=1;whiteSpace=wrap;html=1;" vertex="1" parent="1">
          <mxGeometry x="520" y="420" width="90" height="40" as="geometry" />
        </mxCell>
        <mxCell id="7v8pQZR2P8C5f7t9BF2W-61" style="edgeStyle=orthogonalEdgeStyle;rounded=0;orthogonalLoop=1;jettySize=auto;html=1;exitX=1;exitY=0.5;exitDx=0;exitDy=0;entryX=-0.005;entryY=0.102;entryDx=0;entryDy=0;startArrow=ERzeroToOne;startFill=0;endArrow=ERzeroToMany;endFill=0;entryPerimeter=0;" edge="1" parent="1" source="7v8pQZR2P8C5f7t9BF2W-19" target="7v8pQZR2P8C5f7t9BF2W-51">
          <mxGeometry relative="1" as="geometry" />
        </mxCell>
        <mxCell id="7v8pQZR2P8C5f7t9BF2W-62" value="" style="endArrow=none;dashed=1;html=1;rounded=0;" edge="1" parent="1" target="7v8pQZR2P8C5f7t9BF2W-63">
          <mxGeometry width="50" height="50" relative="1" as="geometry">
            <mxPoint x="320" y="407" as="sourcePoint" />
            <mxPoint x="380" y="407" as="targetPoint" />
          </mxGeometry>
        </mxCell>
        <mxCell id="7v8pQZR2P8C5f7t9BF2W-63" value="&lt;font style=&quot;font-size: 10px;&quot;&gt;Start_Date&lt;br&gt;End_Date&lt;/font&gt;" style="rounded=1;whiteSpace=wrap;html=1;" vertex="1" parent="1">
          <mxGeometry x="365" y="390" width="85" height="40" as="geometry" />
        </mxCell>
        <mxCell id="7v8pQZR2P8C5f7t9BF2W-64" value="Maintains" style="text;html=1;align=center;verticalAlign=middle;resizable=0;points=[];autosize=1;strokeColor=none;fillColor=none;" vertex="1" parent="1">
          <mxGeometry x="400" y="648" width="70" height="30" as="geometry" />
        </mxCell>
        <mxCell id="7v8pQZR2P8C5f7t9BF2W-65" value="" style="endArrow=none;dashed=1;html=1;rounded=0;" edge="1" parent="1">
          <mxGeometry width="50" height="50" relative="1" as="geometry">
            <mxPoint x="440" y="796" as="sourcePoint" />
            <mxPoint x="440" y="716" as="targetPoint" />
          </mxGeometry>
        </mxCell>
        <mxCell id="7v8pQZR2P8C5f7t9BF2W-66" value="&lt;font size=&quot;1&quot;&gt;Maintenance_Date&lt;br&gt;Maintenance_Time&lt;br&gt;&lt;/font&gt;" style="rounded=1;whiteSpace=wrap;html=1;" vertex="1" parent="1">
          <mxGeometry x="400" y="796" width="100" height="50" as="geometry" />
        </mxCell>
      </root>
    </mxGraphModel>
  </diagram>
</mxfile>
